<svg width="10" height="9" viewBox="0 0 10 9" fill="none" xmlns="http://www.w3.org/2000/svg">
<path d="M0.913449 3.88974C0.795383 3.77744 0.777145 3.57778 0.873133 3.44579L1.29165 2.87034C1.38763 2.73836 1.57577 2.70668 1.70968 2.79931L4.02733 4.40376C4.16123 4.49639 4.18667 4.67589 4.08396 4.8026L3.30741 5.75721C3.2047 5.88391 3.02377 5.89543 2.9057 5.78312L0.913449 3.88974ZM1.93141 7.71106C1.8335 7.58052 1.8599 7.39334 1.98948 7.29495L4.2985 5.54315C4.42856 5.44476 4.60518 5.47692 4.69157 5.61514L5.33662 6.64703C5.42301 6.78525 5.37693 6.96283 5.23439 7.04202L2.80395 8.38539C2.66141 8.4641 2.46463 8.42186 2.36672 8.2918L1.93141 7.71106ZM3.56418 3.53027C3.41252 3.47027 3.34773 3.30181 3.4202 3.15591L4.6431 0.689953C4.71557 0.54405 4.90179 0.465339 5.05729 0.514773L5.76377 0.741307C5.91879 0.791221 6.00518 0.958722 5.95479 1.11374L5.08225 3.81055C5.03185 3.96557 4.86675 4.04381 4.71509 3.98381L3.56418 3.53027ZM5.5214 5.61898C5.46668 5.4654 5.55115 5.30654 5.70905 5.26574L6.90892 4.95762C7.06682 4.9173 7.22184 5.01473 7.25352 5.17456L7.78625 7.8776C7.81793 8.03743 7.71666 8.20925 7.56116 8.25916L6.85516 8.48569C6.70014 8.53561 6.52832 8.45066 6.47361 8.29708L5.5214 5.61898ZM5.818 3.02248C5.82472 2.85978 5.96247 2.74028 6.12469 2.75803L8.89205 3.05464C9.05427 3.07192 9.18673 3.21974 9.18673 3.38244V4.10812C9.18673 4.2713 9.05331 4.40904 8.89061 4.4148L6.05462 4.51415C5.89191 4.51991 5.76377 4.39129 5.77001 4.2281L5.818 3.02248Z" fill="#FCFCFE"/>
</svg>
