<svg width="16" height="12" viewBox="0 0 16 12" fill="none" xmlns="http://www.w3.org/2000/svg">
<path d="M10.73 5.26497C11.1425 4.16247 11.8025 3.17997 12.65 2.39247C12.935 2.12247 12.68 1.64247 12.305 1.75497C9.815 2.48997 7.9925 4.79247 8 7.52247C8.7125 6.56247 9.65 5.78997 10.73 5.26497ZM7.565 3.63747C7.115 2.46747 6.3425 1.45497 5.345 0.734969C5.03 0.509969 4.625 0.877469 4.805 1.22247C5.405 2.36247 5.75 3.65997 5.75 5.03247C5.75 5.18997 5.7275 5.33997 5.72 5.48997C6.0425 5.66997 6.3425 5.87997 6.635 6.10497C6.7925 5.21997 7.1225 4.38747 7.565 3.63747ZM8 12H1.25C0.8375 12 0.5 11.6625 0.5 11.25C0.5 10.8375 0.8375 10.5 1.25 10.5H4.8125C4.385 8.85747 3.2825 7.48497 1.8125 6.70497C1.6925 6.64497 1.6175 6.51747 1.6175 6.37497C1.6175 6.17247 1.7825 6.00747 1.985 5.99997C1.9925 5.99997 2 5.99997 2 5.99997C5.315 5.99997 8 8.68497 8 12ZM14.195 6.70497C12.725 7.48497 11.615 8.85747 11.195 10.5H14.75C15.1625 10.5 15.5 10.8375 15.5 11.25C15.5 11.6625 15.1625 12 14.75 12H11H9.5C9.5 11.49 9.4475 10.9875 9.35 10.5C9.2375 9.95997 9.065 9.43497 8.8475 8.94747C9.89 7.18497 11.8025 5.99997 14 5.99997C14.0075 5.99997 14.015 5.99997 14.015 5.99997C14.2175 5.99997 14.3825 6.17247 14.3825 6.37497C14.39 6.51747 14.3075 6.63747 14.195 6.70497Z" fill="black"/>
</svg>
