<svg width="16" height="16" viewBox="0 0 16 16" fill="none" xmlns="http://www.w3.org/2000/svg">
<path d="M13.9099 12.8525C14.2699 12.275 14.4724 11.6 14.4274 10.8575C14.3299 9.24498 13.0474 7.87998 11.4499 7.70748C9.40993 7.48248 7.68493 9.06498 7.68493 11.06C7.68493 12.9275 9.19243 14.435 11.0524 14.435C11.7124 14.435 12.3274 14.24 12.8449 13.91L14.6524 15.7175C14.9449 16.01 15.4249 16.01 15.7174 15.7175C16.0099 15.425 16.0099 14.945 15.7174 14.6525L13.9099 12.8525ZM11.0599 12.935C10.0249 12.935 9.18493 12.095 9.18493 11.06C9.18493 10.025 10.0249 9.18498 11.0599 9.18498C12.0949 9.18498 12.9349 10.025 12.9349 11.06C12.9349 12.095 12.0949 12.935 11.0599 12.935ZM10.7899 6.55998C10.2349 6.57498 9.70243 6.69498 9.21493 6.89748L8.80243 6.27498L6.49243 10.0325C6.22243 10.4675 5.61493 10.5125 5.28493 10.13L3.69493 8.27748L1.39993 11.9525C1.16743 12.32 0.672428 12.4175 0.319928 12.1625C0.0049277 11.93 -0.0850723 11.495 0.124928 11.1575L2.95993 6.61998C3.22993 6.19248 3.83743 6.14748 4.16743 6.52998L5.74993 8.37498L8.13493 4.49748C8.41993 4.03248 9.09493 4.01748 9.39493 4.47498L10.7899 6.55998ZM12.7324 6.93498C12.2524 6.72498 11.7349 6.59748 11.1949 6.56748L14.5999 1.17498C14.8324 0.80748 15.3274 0.71748 15.6724 0.97248C15.9949 1.20498 16.0774 1.64748 15.8674 1.97748L12.7324 6.93498Z" fill="black"/>
</svg>
